<mxfile host="app.diagrams.net" modified="2021-11-11T14:21:46.825Z" agent="5.0 (Windows)" etag="_FJet50JlcNYTcRFOeWM" version="15.7.3" type="github">
  <diagram id="C5RBs43oDa-KdzZeNtuy" name="Page-1">
    <mxGraphModel dx="2889" dy="1069" grid="1" gridSize="10" guides="1" tooltips="1" connect="1" arrows="1" fold="1" page="1" pageScale="1" pageWidth="827" pageHeight="1169" math="0" shadow="0">
      <root>
        <mxCell id="WIyWlLk6GJQsqaUBKTNV-0" />
        <mxCell id="WIyWlLk6GJQsqaUBKTNV-1" parent="WIyWlLk6GJQsqaUBKTNV-0" />
        <mxCell id="rEVr8UFWXFzNMmC5mLxL-58" style="edgeStyle=orthogonalEdgeStyle;rounded=0;orthogonalLoop=1;jettySize=auto;html=1;exitX=0.5;exitY=1;exitDx=0;exitDy=0;entryX=0.5;entryY=0;entryDx=0;entryDy=0;" edge="1" parent="WIyWlLk6GJQsqaUBKTNV-1" source="zkfFHV4jXpPFQw0GAbJ--0" target="rEVr8UFWXFzNMmC5mLxL-5">
          <mxGeometry relative="1" as="geometry">
            <Array as="points">
              <mxPoint x="390" y="158" />
              <mxPoint x="770" y="158" />
              <mxPoint x="770" y="120" />
              <mxPoint x="1135" y="120" />
            </Array>
          </mxGeometry>
        </mxCell>
        <mxCell id="rEVr8UFWXFzNMmC5mLxL-76" style="edgeStyle=orthogonalEdgeStyle;rounded=0;orthogonalLoop=1;jettySize=auto;html=1;exitX=0.5;exitY=1;exitDx=0;exitDy=0;entryX=0.5;entryY=0;entryDx=0;entryDy=0;" edge="1" parent="WIyWlLk6GJQsqaUBKTNV-1" source="zkfFHV4jXpPFQw0GAbJ--0" target="rEVr8UFWXFzNMmC5mLxL-3">
          <mxGeometry relative="1" as="geometry" />
        </mxCell>
        <mxCell id="rEVr8UFWXFzNMmC5mLxL-77" style="edgeStyle=orthogonalEdgeStyle;rounded=0;orthogonalLoop=1;jettySize=auto;html=1;exitX=0.5;exitY=1;exitDx=0;exitDy=0;entryX=0.5;entryY=0;entryDx=0;entryDy=0;" edge="1" parent="WIyWlLk6GJQsqaUBKTNV-1" source="zkfFHV4jXpPFQw0GAbJ--0" target="rEVr8UFWXFzNMmC5mLxL-6">
          <mxGeometry relative="1" as="geometry" />
        </mxCell>
        <mxCell id="rEVr8UFWXFzNMmC5mLxL-78" style="edgeStyle=orthogonalEdgeStyle;rounded=0;orthogonalLoop=1;jettySize=auto;html=1;exitX=0.5;exitY=1;exitDx=0;exitDy=0;entryX=0.5;entryY=0;entryDx=0;entryDy=0;" edge="1" parent="WIyWlLk6GJQsqaUBKTNV-1" source="zkfFHV4jXpPFQw0GAbJ--0" target="rEVr8UFWXFzNMmC5mLxL-4">
          <mxGeometry relative="1" as="geometry" />
        </mxCell>
        <mxCell id="zkfFHV4jXpPFQw0GAbJ--0" value="SimplePanel.tsx" style="swimlane;fontStyle=2;align=center;verticalAlign=top;childLayout=stackLayout;horizontal=1;startSize=26;horizontalStack=0;resizeParent=1;resizeLast=0;collapsible=1;marginBottom=0;rounded=0;shadow=0;strokeWidth=1;fillColor=#ffe6cc;strokeColor=#d79b00;gradientColor=#ffffff;swimlaneFillColor=default;" parent="WIyWlLk6GJQsqaUBKTNV-1" vertex="1">
          <mxGeometry x="310" width="160" height="138" as="geometry">
            <mxRectangle x="230" y="140" width="160" height="26" as="alternateBounds" />
          </mxGeometry>
        </mxCell>
        <mxCell id="zkfFHV4jXpPFQw0GAbJ--4" value="" style="line;html=1;strokeWidth=1;align=left;verticalAlign=middle;spacingTop=-1;spacingLeft=3;spacingRight=3;rotatable=0;labelPosition=right;points=[];portConstraint=eastwest;" parent="zkfFHV4jXpPFQw0GAbJ--0" vertex="1">
          <mxGeometry y="26" width="160" height="8" as="geometry" />
        </mxCell>
        <mxCell id="rEVr8UFWXFzNMmC5mLxL-83" style="edgeStyle=orthogonalEdgeStyle;orthogonalLoop=1;jettySize=auto;html=1;exitX=0.5;exitY=1;exitDx=0;exitDy=0;entryX=0.5;entryY=1;entryDx=0;entryDy=0;curved=1;" edge="1" parent="WIyWlLk6GJQsqaUBKTNV-1" source="rEVr8UFWXFzNMmC5mLxL-1" target="rEVr8UFWXFzNMmC5mLxL-68">
          <mxGeometry relative="1" as="geometry">
            <Array as="points">
              <mxPoint x="-110" y="370" />
              <mxPoint x="20" y="370" />
              <mxPoint x="20" y="820" />
              <mxPoint x="-128" y="820" />
            </Array>
          </mxGeometry>
        </mxCell>
        <mxCell id="rEVr8UFWXFzNMmC5mLxL-1" value="drilldown" style="swimlane;startSize=23;fillColor=#dae8fc;strokeColor=#6c8ebf;gradientColor=#ffffff;swimlaneFillColor=default;" vertex="1" parent="WIyWlLk6GJQsqaUBKTNV-1">
          <mxGeometry x="-180" y="160" width="140" height="200" as="geometry" />
        </mxCell>
        <mxCell id="rEVr8UFWXFzNMmC5mLxL-75" style="edgeStyle=orthogonalEdgeStyle;orthogonalLoop=1;jettySize=auto;html=1;exitX=0.5;exitY=1;exitDx=0;exitDy=0;entryX=0.5;entryY=1;entryDx=0;entryDy=0;curved=1;" edge="1" parent="WIyWlLk6GJQsqaUBKTNV-1" source="rEVr8UFWXFzNMmC5mLxL-2" target="rEVr8UFWXFzNMmC5mLxL-74">
          <mxGeometry relative="1" as="geometry">
            <Array as="points">
              <mxPoint x="-75" y="900" />
              <mxPoint x="-178" y="900" />
            </Array>
          </mxGeometry>
        </mxCell>
        <mxCell id="rEVr8UFWXFzNMmC5mLxL-2" value="Dropdown" style="swimlane;fillColor=#dae8fc;strokeColor=#6c8ebf;gradientColor=#ffffff;swimlaneFillColor=default;" vertex="1" parent="WIyWlLk6GJQsqaUBKTNV-1">
          <mxGeometry x="-140" y="450" width="130" height="200" as="geometry" />
        </mxCell>
        <mxCell id="rEVr8UFWXFzNMmC5mLxL-82" style="edgeStyle=orthogonalEdgeStyle;orthogonalLoop=1;jettySize=auto;html=1;exitX=0.5;exitY=1;exitDx=0;exitDy=0;entryX=0.5;entryY=1;entryDx=0;entryDy=0;curved=1;" edge="1" parent="WIyWlLk6GJQsqaUBKTNV-1" source="rEVr8UFWXFzNMmC5mLxL-3" target="rEVr8UFWXFzNMmC5mLxL-74">
          <mxGeometry relative="1" as="geometry">
            <Array as="points">
              <mxPoint x="260" y="440" />
              <mxPoint x="260" y="940" />
              <mxPoint x="-178" y="940" />
            </Array>
          </mxGeometry>
        </mxCell>
        <mxCell id="rEVr8UFWXFzNMmC5mLxL-3" value="DropdownFilter" style="swimlane;fillColor=#dae8fc;strokeColor=#6c8ebf;gradientColor=#ffffff;swimlaneFillColor=default;" vertex="1" parent="WIyWlLk6GJQsqaUBKTNV-1">
          <mxGeometry x="210" y="240" width="120" height="200" as="geometry" />
        </mxCell>
        <mxCell id="rEVr8UFWXFzNMmC5mLxL-80" style="edgeStyle=orthogonalEdgeStyle;orthogonalLoop=1;jettySize=auto;html=1;exitX=0.5;exitY=1;exitDx=0;exitDy=0;entryX=0.5;entryY=1;entryDx=0;entryDy=0;curved=1;" edge="1" parent="WIyWlLk6GJQsqaUBKTNV-1" source="rEVr8UFWXFzNMmC5mLxL-4" target="rEVr8UFWXFzNMmC5mLxL-68">
          <mxGeometry relative="1" as="geometry">
            <Array as="points">
              <mxPoint x="70" y="870" />
              <mxPoint x="-128" y="870" />
            </Array>
          </mxGeometry>
        </mxCell>
        <mxCell id="rEVr8UFWXFzNMmC5mLxL-81" style="edgeStyle=orthogonalEdgeStyle;orthogonalLoop=1;jettySize=auto;html=1;exitX=0.5;exitY=1;exitDx=0;exitDy=0;entryX=0.5;entryY=1;entryDx=0;entryDy=0;curved=1;" edge="1" parent="WIyWlLk6GJQsqaUBKTNV-1" source="rEVr8UFWXFzNMmC5mLxL-4" target="rEVr8UFWXFzNMmC5mLxL-72">
          <mxGeometry relative="1" as="geometry">
            <Array as="points">
              <mxPoint x="70" y="1010" />
              <mxPoint x="-228" y="1010" />
            </Array>
          </mxGeometry>
        </mxCell>
        <mxCell id="rEVr8UFWXFzNMmC5mLxL-94" style="edgeStyle=orthogonalEdgeStyle;orthogonalLoop=1;jettySize=auto;html=1;exitX=0.25;exitY=1;exitDx=0;exitDy=0;entryX=0.75;entryY=0;entryDx=0;entryDy=0;rounded=0;" edge="1" parent="WIyWlLk6GJQsqaUBKTNV-1" source="rEVr8UFWXFzNMmC5mLxL-4" target="rEVr8UFWXFzNMmC5mLxL-2">
          <mxGeometry relative="1" as="geometry" />
        </mxCell>
        <mxCell id="rEVr8UFWXFzNMmC5mLxL-4" value="GraphUI" style="swimlane;fillColor=#dae8fc;strokeColor=#6c8ebf;gradientColor=#ffffff;swimlaneFillColor=default;" vertex="1" parent="WIyWlLk6GJQsqaUBKTNV-1">
          <mxGeometry x="10" y="170" width="120" height="200" as="geometry" />
        </mxCell>
        <mxCell id="rEVr8UFWXFzNMmC5mLxL-107" style="edgeStyle=orthogonalEdgeStyle;curved=1;orthogonalLoop=1;jettySize=auto;html=1;exitX=0.25;exitY=1;exitDx=0;exitDy=0;entryX=0.5;entryY=0;entryDx=0;entryDy=0;" edge="1" parent="WIyWlLk6GJQsqaUBKTNV-1" source="rEVr8UFWXFzNMmC5mLxL-5" target="rEVr8UFWXFzNMmC5mLxL-11">
          <mxGeometry relative="1" as="geometry">
            <Array as="points">
              <mxPoint x="1103" y="570" />
              <mxPoint x="632" y="570" />
            </Array>
          </mxGeometry>
        </mxCell>
        <mxCell id="rEVr8UFWXFzNMmC5mLxL-108" style="edgeStyle=orthogonalEdgeStyle;orthogonalLoop=1;jettySize=auto;html=1;exitX=0.75;exitY=1;exitDx=0;exitDy=0;entryX=0.5;entryY=0;entryDx=0;entryDy=0;rounded=0;" edge="1" parent="WIyWlLk6GJQsqaUBKTNV-1" source="rEVr8UFWXFzNMmC5mLxL-5" target="rEVr8UFWXFzNMmC5mLxL-9">
          <mxGeometry relative="1" as="geometry" />
        </mxCell>
        <mxCell id="rEVr8UFWXFzNMmC5mLxL-109" style="edgeStyle=orthogonalEdgeStyle;rounded=0;orthogonalLoop=1;jettySize=auto;html=1;exitX=0.5;exitY=1;exitDx=0;exitDy=0;entryX=0.5;entryY=0;entryDx=0;entryDy=0;" edge="1" parent="WIyWlLk6GJQsqaUBKTNV-1" source="rEVr8UFWXFzNMmC5mLxL-5" target="rEVr8UFWXFzNMmC5mLxL-8">
          <mxGeometry relative="1" as="geometry">
            <Array as="points">
              <mxPoint x="1135" y="390" />
              <mxPoint x="1025" y="390" />
              <mxPoint x="1025" y="250" />
              <mxPoint x="925" y="250" />
            </Array>
          </mxGeometry>
        </mxCell>
        <mxCell id="rEVr8UFWXFzNMmC5mLxL-110" style="edgeStyle=orthogonalEdgeStyle;rounded=0;orthogonalLoop=1;jettySize=auto;html=1;exitX=0;exitY=1;exitDx=0;exitDy=0;entryX=0.5;entryY=0;entryDx=0;entryDy=0;" edge="1" parent="WIyWlLk6GJQsqaUBKTNV-1" source="rEVr8UFWXFzNMmC5mLxL-5" target="rEVr8UFWXFzNMmC5mLxL-7">
          <mxGeometry relative="1" as="geometry">
            <Array as="points">
              <mxPoint x="1080" y="330" />
              <mxPoint x="1080" y="370" />
              <mxPoint x="1040" y="370" />
              <mxPoint x="1040" y="220" />
              <mxPoint x="545" y="220" />
            </Array>
          </mxGeometry>
        </mxCell>
        <mxCell id="rEVr8UFWXFzNMmC5mLxL-5" value="canvas" style="swimlane;startSize=23;fillColor=#dae8fc;strokeColor=#6c8ebf;gradientColor=#ffffff;swimlaneFillColor=default;" vertex="1" parent="WIyWlLk6GJQsqaUBKTNV-1">
          <mxGeometry x="1070" y="130" width="130" height="200" as="geometry" />
        </mxCell>
        <mxCell id="rEVr8UFWXFzNMmC5mLxL-73" style="edgeStyle=orthogonalEdgeStyle;orthogonalLoop=1;jettySize=auto;html=1;exitX=0.5;exitY=1;exitDx=0;exitDy=0;entryX=0.5;entryY=1;entryDx=0;entryDy=0;curved=1;" edge="1" parent="WIyWlLk6GJQsqaUBKTNV-1" source="rEVr8UFWXFzNMmC5mLxL-6" target="rEVr8UFWXFzNMmC5mLxL-72">
          <mxGeometry relative="1" as="geometry">
            <Array as="points">
              <mxPoint x="-330" y="360" />
              <mxPoint x="-330" y="870" />
              <mxPoint x="-228" y="870" />
            </Array>
          </mxGeometry>
        </mxCell>
        <mxCell id="rEVr8UFWXFzNMmC5mLxL-90" style="edgeStyle=orthogonalEdgeStyle;orthogonalLoop=1;jettySize=auto;html=1;exitX=0.75;exitY=1;exitDx=0;exitDy=0;entryX=0.25;entryY=0;entryDx=0;entryDy=0;rounded=0;" edge="1" parent="WIyWlLk6GJQsqaUBKTNV-1" source="rEVr8UFWXFzNMmC5mLxL-6" target="rEVr8UFWXFzNMmC5mLxL-2">
          <mxGeometry relative="1" as="geometry" />
        </mxCell>
        <mxCell id="rEVr8UFWXFzNMmC5mLxL-93" style="edgeStyle=orthogonalEdgeStyle;curved=1;orthogonalLoop=1;jettySize=auto;html=1;exitX=0.25;exitY=1;exitDx=0;exitDy=0;entryX=0.5;entryY=0;entryDx=0;entryDy=0;" edge="1" parent="WIyWlLk6GJQsqaUBKTNV-1" source="rEVr8UFWXFzNMmC5mLxL-6" target="rEVr8UFWXFzNMmC5mLxL-68">
          <mxGeometry relative="1" as="geometry">
            <Array as="points">
              <mxPoint x="-335" y="700" />
              <mxPoint x="-230" y="700" />
              <mxPoint x="-230" y="710" />
              <mxPoint x="-128" y="710" />
            </Array>
          </mxGeometry>
        </mxCell>
        <mxCell id="rEVr8UFWXFzNMmC5mLxL-6" value="NodeMetric" style="swimlane;fillColor=#dae8fc;strokeColor=#6c8ebf;gradientColor=#ffffff;swimlaneFillColor=default;" vertex="1" parent="WIyWlLk6GJQsqaUBKTNV-1">
          <mxGeometry x="-370" y="160" width="140" height="200" as="geometry" />
        </mxCell>
        <mxCell id="rEVr8UFWXFzNMmC5mLxL-34" style="edgeStyle=orthogonalEdgeStyle;rounded=0;orthogonalLoop=1;jettySize=auto;html=1;exitX=0.5;exitY=1;exitDx=0;exitDy=0;entryX=0.5;entryY=0;entryDx=0;entryDy=0;" edge="1" parent="WIyWlLk6GJQsqaUBKTNV-1" source="rEVr8UFWXFzNMmC5mLxL-7" target="rEVr8UFWXFzNMmC5mLxL-18">
          <mxGeometry relative="1" as="geometry">
            <Array as="points">
              <mxPoint x="540" y="470" />
              <mxPoint x="540" y="565" />
              <mxPoint x="810" y="565" />
            </Array>
          </mxGeometry>
        </mxCell>
        <mxCell id="rEVr8UFWXFzNMmC5mLxL-38" style="edgeStyle=orthogonalEdgeStyle;rounded=0;orthogonalLoop=1;jettySize=auto;html=1;exitX=0.5;exitY=1;exitDx=0;exitDy=0;entryX=0.5;entryY=0;entryDx=0;entryDy=0;" edge="1" parent="WIyWlLk6GJQsqaUBKTNV-1" source="rEVr8UFWXFzNMmC5mLxL-7" target="rEVr8UFWXFzNMmC5mLxL-19">
          <mxGeometry relative="1" as="geometry">
            <Array as="points">
              <mxPoint x="560" y="470" />
              <mxPoint x="560" y="550" />
              <mxPoint x="880" y="550" />
            </Array>
          </mxGeometry>
        </mxCell>
        <mxCell id="rEVr8UFWXFzNMmC5mLxL-84" style="edgeStyle=orthogonalEdgeStyle;rounded=0;orthogonalLoop=1;jettySize=auto;html=1;exitX=0.5;exitY=1;exitDx=0;exitDy=0;entryX=0.5;entryY=0;entryDx=0;entryDy=0;" edge="1" parent="WIyWlLk6GJQsqaUBKTNV-1" source="rEVr8UFWXFzNMmC5mLxL-7" target="rEVr8UFWXFzNMmC5mLxL-16">
          <mxGeometry relative="1" as="geometry">
            <Array as="points">
              <mxPoint x="520" y="470" />
              <mxPoint x="520" y="580" />
              <mxPoint x="740" y="580" />
            </Array>
          </mxGeometry>
        </mxCell>
        <mxCell id="rEVr8UFWXFzNMmC5mLxL-111" style="edgeStyle=orthogonalEdgeStyle;curved=1;orthogonalLoop=1;jettySize=auto;html=1;entryX=0;entryY=1;entryDx=0;entryDy=0;" edge="1" parent="WIyWlLk6GJQsqaUBKTNV-1" target="rEVr8UFWXFzNMmC5mLxL-12">
          <mxGeometry relative="1" as="geometry">
            <mxPoint x="500" y="470" as="sourcePoint" />
            <Array as="points">
              <mxPoint x="490" y="1079" />
            </Array>
          </mxGeometry>
        </mxCell>
        <mxCell id="rEVr8UFWXFzNMmC5mLxL-112" style="edgeStyle=orthogonalEdgeStyle;orthogonalLoop=1;jettySize=auto;html=1;exitX=0.75;exitY=1;exitDx=0;exitDy=0;entryX=0.5;entryY=0;entryDx=0;entryDy=0;rounded=0;" edge="1" parent="WIyWlLk6GJQsqaUBKTNV-1" source="rEVr8UFWXFzNMmC5mLxL-7" target="rEVr8UFWXFzNMmC5mLxL-20">
          <mxGeometry relative="1" as="geometry">
            <Array as="points">
              <mxPoint x="573" y="540" />
              <mxPoint x="950" y="540" />
            </Array>
          </mxGeometry>
        </mxCell>
        <mxCell id="rEVr8UFWXFzNMmC5mLxL-7" value="Overview" style="swimlane;fillColor=#dae8fc;strokeColor=#6c8ebf;gradientColor=#ffffff;swimlaneFillColor=default;" vertex="1" parent="WIyWlLk6GJQsqaUBKTNV-1">
          <mxGeometry x="490" y="270" width="110" height="200" as="geometry">
            <mxRectangle x="900" y="400" width="90" height="23" as="alternateBounds" />
          </mxGeometry>
        </mxCell>
        <mxCell id="rEVr8UFWXFzNMmC5mLxL-41" style="edgeStyle=orthogonalEdgeStyle;rounded=0;orthogonalLoop=1;jettySize=auto;html=1;exitX=0.5;exitY=1;exitDx=0;exitDy=0;entryX=0.5;entryY=0;entryDx=0;entryDy=0;" edge="1" parent="WIyWlLk6GJQsqaUBKTNV-1" source="rEVr8UFWXFzNMmC5mLxL-8" target="rEVr8UFWXFzNMmC5mLxL-22">
          <mxGeometry relative="1" as="geometry">
            <Array as="points">
              <mxPoint x="940" y="470" />
              <mxPoint x="940" y="580" />
              <mxPoint x="1250" y="580" />
            </Array>
          </mxGeometry>
        </mxCell>
        <mxCell id="rEVr8UFWXFzNMmC5mLxL-42" style="edgeStyle=orthogonalEdgeStyle;rounded=0;orthogonalLoop=1;jettySize=auto;html=1;exitX=0.5;exitY=1;exitDx=0;exitDy=0;entryX=0.5;entryY=0;entryDx=0;entryDy=0;" edge="1" parent="WIyWlLk6GJQsqaUBKTNV-1" source="rEVr8UFWXFzNMmC5mLxL-8" target="rEVr8UFWXFzNMmC5mLxL-23">
          <mxGeometry relative="1" as="geometry">
            <Array as="points">
              <mxPoint x="890" y="470" />
              <mxPoint x="890" y="550" />
              <mxPoint x="1370" y="550" />
            </Array>
          </mxGeometry>
        </mxCell>
        <mxCell id="rEVr8UFWXFzNMmC5mLxL-43" style="edgeStyle=orthogonalEdgeStyle;rounded=0;orthogonalLoop=1;jettySize=auto;html=1;exitX=0.5;exitY=1;exitDx=0;exitDy=0;entryX=0.5;entryY=0;entryDx=0;entryDy=0;" edge="1" parent="WIyWlLk6GJQsqaUBKTNV-1" source="rEVr8UFWXFzNMmC5mLxL-8" target="rEVr8UFWXFzNMmC5mLxL-24">
          <mxGeometry relative="1" as="geometry">
            <Array as="points">
              <mxPoint x="910" y="470" />
              <mxPoint x="910" y="530" />
              <mxPoint x="1020" y="530" />
            </Array>
          </mxGeometry>
        </mxCell>
        <mxCell id="rEVr8UFWXFzNMmC5mLxL-44" style="edgeStyle=orthogonalEdgeStyle;rounded=0;orthogonalLoop=1;jettySize=auto;html=1;exitX=0.5;exitY=1;exitDx=0;exitDy=0;entryX=0.5;entryY=0;entryDx=0;entryDy=0;" edge="1" parent="WIyWlLk6GJQsqaUBKTNV-1" source="rEVr8UFWXFzNMmC5mLxL-8" target="rEVr8UFWXFzNMmC5mLxL-25">
          <mxGeometry relative="1" as="geometry">
            <Array as="points">
              <mxPoint x="970" y="470" />
              <mxPoint x="970" y="510" />
              <mxPoint x="1085" y="510" />
            </Array>
          </mxGeometry>
        </mxCell>
        <mxCell id="rEVr8UFWXFzNMmC5mLxL-97" style="edgeStyle=orthogonalEdgeStyle;rounded=0;orthogonalLoop=1;jettySize=auto;html=1;exitX=0.75;exitY=1;exitDx=0;exitDy=0;entryX=0.25;entryY=0;entryDx=0;entryDy=0;" edge="1" parent="WIyWlLk6GJQsqaUBKTNV-1" source="rEVr8UFWXFzNMmC5mLxL-8" target="rEVr8UFWXFzNMmC5mLxL-21">
          <mxGeometry relative="1" as="geometry">
            <Array as="points">
              <mxPoint x="953" y="520" />
              <mxPoint x="1155" y="520" />
            </Array>
          </mxGeometry>
        </mxCell>
        <mxCell id="rEVr8UFWXFzNMmC5mLxL-105" style="edgeStyle=orthogonalEdgeStyle;curved=1;orthogonalLoop=1;jettySize=auto;html=1;exitX=0.5;exitY=1;exitDx=0;exitDy=0;entryX=0;entryY=0.5;entryDx=0;entryDy=0;" edge="1" parent="WIyWlLk6GJQsqaUBKTNV-1" source="rEVr8UFWXFzNMmC5mLxL-8" target="rEVr8UFWXFzNMmC5mLxL-12">
          <mxGeometry relative="1" as="geometry">
            <Array as="points">
              <mxPoint x="570" y="470" />
              <mxPoint x="570" y="1050" />
            </Array>
          </mxGeometry>
        </mxCell>
        <mxCell id="rEVr8UFWXFzNMmC5mLxL-8" value="Item" style="swimlane;fillColor=#dae8fc;strokeColor=#6c8ebf;rounded=0;gradientColor=#ffffff;swimlaneFillColor=default;" vertex="1" parent="WIyWlLk6GJQsqaUBKTNV-1">
          <mxGeometry x="870" y="270" width="110" height="200" as="geometry" />
        </mxCell>
        <mxCell id="rEVr8UFWXFzNMmC5mLxL-47" style="edgeStyle=orthogonalEdgeStyle;rounded=0;orthogonalLoop=1;jettySize=auto;html=1;exitX=0.5;exitY=1;exitDx=0;exitDy=0;entryX=0.5;entryY=0;entryDx=0;entryDy=0;" edge="1" parent="WIyWlLk6GJQsqaUBKTNV-1" source="rEVr8UFWXFzNMmC5mLxL-9" target="rEVr8UFWXFzNMmC5mLxL-45">
          <mxGeometry relative="1" as="geometry" />
        </mxCell>
        <mxCell id="rEVr8UFWXFzNMmC5mLxL-48" style="edgeStyle=orthogonalEdgeStyle;rounded=0;orthogonalLoop=1;jettySize=auto;html=1;exitX=0.5;exitY=1;exitDx=0;exitDy=0;entryX=0.5;entryY=0;entryDx=0;entryDy=0;" edge="1" parent="WIyWlLk6GJQsqaUBKTNV-1" source="rEVr8UFWXFzNMmC5mLxL-9" target="rEVr8UFWXFzNMmC5mLxL-46">
          <mxGeometry relative="1" as="geometry">
            <Array as="points">
              <mxPoint x="1460" y="460" />
              <mxPoint x="1460" y="560" />
              <mxPoint x="1530" y="560" />
            </Array>
          </mxGeometry>
        </mxCell>
        <mxCell id="rEVr8UFWXFzNMmC5mLxL-96" style="edgeStyle=orthogonalEdgeStyle;orthogonalLoop=1;jettySize=auto;html=1;exitX=0.25;exitY=1;exitDx=0;exitDy=0;entryX=0.75;entryY=0;entryDx=0;entryDy=0;rounded=0;" edge="1" parent="WIyWlLk6GJQsqaUBKTNV-1" source="rEVr8UFWXFzNMmC5mLxL-9" target="rEVr8UFWXFzNMmC5mLxL-22">
          <mxGeometry relative="1" as="geometry" />
        </mxCell>
        <mxCell id="rEVr8UFWXFzNMmC5mLxL-113" style="edgeStyle=orthogonalEdgeStyle;rounded=0;orthogonalLoop=1;jettySize=auto;html=1;exitX=0.75;exitY=1;exitDx=0;exitDy=0;entryX=0.75;entryY=0;entryDx=0;entryDy=0;" edge="1" parent="WIyWlLk6GJQsqaUBKTNV-1" source="rEVr8UFWXFzNMmC5mLxL-9" target="rEVr8UFWXFzNMmC5mLxL-21">
          <mxGeometry relative="1" as="geometry" />
        </mxCell>
        <mxCell id="rEVr8UFWXFzNMmC5mLxL-9" value="outside" style="swimlane;startSize=23;fillColor=#dae8fc;strokeColor=#6c8ebf;gradientColor=#ffffff;swimlaneFillColor=default;" vertex="1" parent="WIyWlLk6GJQsqaUBKTNV-1">
          <mxGeometry x="1360" y="260" width="110" height="200" as="geometry" />
        </mxCell>
        <mxCell id="rEVr8UFWXFzNMmC5mLxL-11" value="Stage" style="ellipse;whiteSpace=wrap;html=1;fillColor=#fff2cc;strokeColor=#d6b656;" vertex="1" parent="WIyWlLk6GJQsqaUBKTNV-1">
          <mxGeometry x="590" y="900" width="83" height="80" as="geometry" />
        </mxCell>
        <mxCell id="rEVr8UFWXFzNMmC5mLxL-12" value="Layer" style="ellipse;whiteSpace=wrap;html=1;fillColor=#fff2cc;strokeColor=#d6b656;" vertex="1" parent="WIyWlLk6GJQsqaUBKTNV-1">
          <mxGeometry x="590" y="1010" width="83" height="80" as="geometry" />
        </mxCell>
        <mxCell id="rEVr8UFWXFzNMmC5mLxL-13" value="Text" style="ellipse;whiteSpace=wrap;html=1;fillColor=#fff2cc;strokeColor=#d6b656;" vertex="1" parent="WIyWlLk6GJQsqaUBKTNV-1">
          <mxGeometry x="716" y="900" width="83" height="80" as="geometry" />
        </mxCell>
        <mxCell id="rEVr8UFWXFzNMmC5mLxL-14" value="Rect" style="ellipse;whiteSpace=wrap;html=1;fillColor=#fff2cc;strokeColor=#d6b656;" vertex="1" parent="WIyWlLk6GJQsqaUBKTNV-1">
          <mxGeometry x="726" y="1010" width="83" height="80" as="geometry" />
        </mxCell>
        <mxCell id="rEVr8UFWXFzNMmC5mLxL-104" style="edgeStyle=orthogonalEdgeStyle;curved=1;orthogonalLoop=1;jettySize=auto;html=1;exitX=0.5;exitY=1;exitDx=0;exitDy=0;entryX=0;entryY=0.5;entryDx=0;entryDy=0;" edge="1" parent="WIyWlLk6GJQsqaUBKTNV-1" source="rEVr8UFWXFzNMmC5mLxL-16" target="rEVr8UFWXFzNMmC5mLxL-14">
          <mxGeometry relative="1" as="geometry" />
        </mxCell>
        <mxCell id="rEVr8UFWXFzNMmC5mLxL-16" value="Rect&#xa;Overview&#xa;" style="swimlane;startSize=60;fillColor=#dae8fc;strokeColor=#6c8ebf;gradientColor=#ffffff;swimlaneFillColor=default;" vertex="1" parent="WIyWlLk6GJQsqaUBKTNV-1">
          <mxGeometry x="710" y="660" width="60" height="120" as="geometry">
            <mxRectangle x="710" y="660" width="90" height="60" as="alternateBounds" />
          </mxGeometry>
        </mxCell>
        <mxCell id="rEVr8UFWXFzNMmC5mLxL-103" style="edgeStyle=orthogonalEdgeStyle;curved=1;orthogonalLoop=1;jettySize=auto;html=1;exitX=0.25;exitY=1;exitDx=0;exitDy=0;entryX=0;entryY=0;entryDx=0;entryDy=0;" edge="1" parent="WIyWlLk6GJQsqaUBKTNV-1" source="rEVr8UFWXFzNMmC5mLxL-18" target="rEVr8UFWXFzNMmC5mLxL-13">
          <mxGeometry relative="1" as="geometry" />
        </mxCell>
        <mxCell id="rEVr8UFWXFzNMmC5mLxL-18" value="Text&#xa;Overview&#xa;" style="swimlane;startSize=60;fillColor=#dae8fc;strokeColor=#6c8ebf;gradientColor=#ffffff;swimlaneFillColor=default;" vertex="1" parent="WIyWlLk6GJQsqaUBKTNV-1">
          <mxGeometry x="780" y="660" width="60" height="120" as="geometry" />
        </mxCell>
        <mxCell id="rEVr8UFWXFzNMmC5mLxL-106" style="edgeStyle=orthogonalEdgeStyle;curved=1;orthogonalLoop=1;jettySize=auto;html=1;exitX=0.5;exitY=1;exitDx=0;exitDy=0;entryX=1;entryY=0;entryDx=0;entryDy=0;" edge="1" parent="WIyWlLk6GJQsqaUBKTNV-1" source="rEVr8UFWXFzNMmC5mLxL-19" target="rEVr8UFWXFzNMmC5mLxL-14">
          <mxGeometry relative="1" as="geometry">
            <Array as="points">
              <mxPoint x="880" y="1022" />
            </Array>
          </mxGeometry>
        </mxCell>
        <mxCell id="rEVr8UFWXFzNMmC5mLxL-19" value="Node" style="swimlane;startSize=60;fillColor=#dae8fc;strokeColor=#6c8ebf;gradientColor=#ffffff;swimlaneFillColor=default;" vertex="1" parent="WIyWlLk6GJQsqaUBKTNV-1">
          <mxGeometry x="850" y="660" width="60" height="120" as="geometry" />
        </mxCell>
        <mxCell id="rEVr8UFWXFzNMmC5mLxL-101" style="edgeStyle=orthogonalEdgeStyle;curved=1;orthogonalLoop=1;jettySize=auto;html=1;exitX=0.5;exitY=1;exitDx=0;exitDy=0;entryX=1;entryY=0;entryDx=0;entryDy=0;" edge="1" parent="WIyWlLk6GJQsqaUBKTNV-1" source="rEVr8UFWXFzNMmC5mLxL-20" target="rEVr8UFWXFzNMmC5mLxL-13">
          <mxGeometry relative="1" as="geometry">
            <Array as="points">
              <mxPoint x="950" y="880" />
              <mxPoint x="787" y="880" />
            </Array>
          </mxGeometry>
        </mxCell>
        <mxCell id="rEVr8UFWXFzNMmC5mLxL-20" value="Node&#xa;Text&#xa;" style="swimlane;startSize=60;swimlaneFillColor=default;strokeColor=#6c8ebf;fillColor=#dae8fc;gradientColor=#ffffff;" vertex="1" parent="WIyWlLk6GJQsqaUBKTNV-1">
          <mxGeometry x="920" y="660" width="60" height="120" as="geometry" />
        </mxCell>
        <mxCell id="rEVr8UFWXFzNMmC5mLxL-98" style="edgeStyle=orthogonalEdgeStyle;orthogonalLoop=1;jettySize=auto;html=1;exitX=0.25;exitY=1;exitDx=0;exitDy=0;entryX=1;entryY=0.5;entryDx=0;entryDy=0;curved=1;" edge="1" parent="WIyWlLk6GJQsqaUBKTNV-1" source="rEVr8UFWXFzNMmC5mLxL-21" target="rEVr8UFWXFzNMmC5mLxL-14">
          <mxGeometry relative="1" as="geometry" />
        </mxCell>
        <mxCell id="rEVr8UFWXFzNMmC5mLxL-21" value="Rect&#xa;Item&#xa;" style="swimlane;startSize=60;fillColor=#dae8fc;strokeColor=#6c8ebf;gradientColor=#ffffff;swimlaneFillColor=default;" vertex="1" parent="WIyWlLk6GJQsqaUBKTNV-1">
          <mxGeometry x="1140" y="660" width="60" height="120" as="geometry" />
        </mxCell>
        <mxCell id="rEVr8UFWXFzNMmC5mLxL-100" style="edgeStyle=orthogonalEdgeStyle;curved=1;orthogonalLoop=1;jettySize=auto;html=1;exitX=0.25;exitY=1;exitDx=0;exitDy=0;entryX=0.5;entryY=0;entryDx=0;entryDy=0;" edge="1" parent="WIyWlLk6GJQsqaUBKTNV-1" source="rEVr8UFWXFzNMmC5mLxL-22" target="rEVr8UFWXFzNMmC5mLxL-13">
          <mxGeometry relative="1" as="geometry" />
        </mxCell>
        <mxCell id="rEVr8UFWXFzNMmC5mLxL-22" value="Text&#xa;item&#xa;" style="swimlane;startSize=60;swimlaneFillColor=default;fillColor=#dae8fc;strokeColor=#6c8ebf;gradientColor=#ffffff;" vertex="1" parent="WIyWlLk6GJQsqaUBKTNV-1">
          <mxGeometry x="1220" y="660" width="60" height="120" as="geometry" />
        </mxCell>
        <mxCell id="rEVr8UFWXFzNMmC5mLxL-23" value="image&#xa;Metric&#xa;" style="swimlane;startSize=60;swimlaneFillColor=default;fillColor=#dae8fc;strokeColor=#6c8ebf;gradientColor=#ffffff;" vertex="1" parent="WIyWlLk6GJQsqaUBKTNV-1">
          <mxGeometry x="1340" y="660" width="60" height="120" as="geometry" />
        </mxCell>
        <mxCell id="rEVr8UFWXFzNMmC5mLxL-24" value="App&#xa;Metric&#xa;" style="swimlane;startSize=60;fillColor=#dae8fc;strokeColor=#6c8ebf;gradientColor=#ffffff;swimlaneFillColor=default;" vertex="1" parent="WIyWlLk6GJQsqaUBKTNV-1">
          <mxGeometry x="990" y="660" width="60" height="120" as="geometry" />
        </mxCell>
        <mxCell id="rEVr8UFWXFzNMmC5mLxL-25" value="inf&#xa;Metric&#xa;" style="swimlane;startSize=60;fillColor=#dae8fc;strokeColor=#6c8ebf;gradientColor=#ffffff;swimlaneFillColor=default;" vertex="1" parent="WIyWlLk6GJQsqaUBKTNV-1">
          <mxGeometry x="1055" y="660" width="60" height="120" as="geometry" />
        </mxCell>
        <mxCell id="rEVr8UFWXFzNMmC5mLxL-99" style="edgeStyle=orthogonalEdgeStyle;curved=1;orthogonalLoop=1;jettySize=auto;html=1;exitX=0.5;exitY=1;exitDx=0;exitDy=0;entryX=1;entryY=0.5;entryDx=0;entryDy=0;" edge="1" parent="WIyWlLk6GJQsqaUBKTNV-1" source="rEVr8UFWXFzNMmC5mLxL-45" target="rEVr8UFWXFzNMmC5mLxL-13">
          <mxGeometry relative="1" as="geometry" />
        </mxCell>
        <mxCell id="rEVr8UFWXFzNMmC5mLxL-45" value="Text&#xa;Outside&#xa;" style="swimlane;startSize=60;fillColor=#dae8fc;strokeColor=#6c8ebf;gradientColor=#ffffff;swimlaneFillColor=default;" vertex="1" parent="WIyWlLk6GJQsqaUBKTNV-1">
          <mxGeometry x="1420" y="660" width="60" height="120" as="geometry" />
        </mxCell>
        <mxCell id="rEVr8UFWXFzNMmC5mLxL-67" style="edgeStyle=orthogonalEdgeStyle;orthogonalLoop=1;jettySize=auto;html=1;exitX=0.5;exitY=1;exitDx=0;exitDy=0;entryX=0.5;entryY=1;entryDx=0;entryDy=0;curved=1;" edge="1" parent="WIyWlLk6GJQsqaUBKTNV-1" source="rEVr8UFWXFzNMmC5mLxL-46" target="rEVr8UFWXFzNMmC5mLxL-14">
          <mxGeometry relative="1" as="geometry">
            <Array as="points">
              <mxPoint x="1530" y="1130" />
              <mxPoint x="768" y="1130" />
            </Array>
          </mxGeometry>
        </mxCell>
        <mxCell id="rEVr8UFWXFzNMmC5mLxL-46" value="Rect&#xa;Outside&#xa;" style="swimlane;startSize=60;fillColor=#dae8fc;strokeColor=#6c8ebf;gradientColor=#ffffff;swimlaneFillColor=default;" vertex="1" parent="WIyWlLk6GJQsqaUBKTNV-1">
          <mxGeometry x="1500" y="660" width="60" height="120" as="geometry" />
        </mxCell>
        <mxCell id="rEVr8UFWXFzNMmC5mLxL-68" value="Button" style="ellipse;whiteSpace=wrap;html=1;fillColor=#ffe6cc;strokeColor=#d79b00;" vertex="1" parent="WIyWlLk6GJQsqaUBKTNV-1">
          <mxGeometry x="-170" y="720" width="83" height="80" as="geometry" />
        </mxCell>
        <mxCell id="rEVr8UFWXFzNMmC5mLxL-72" value="&lt;div&gt;Graph&lt;/div&gt;" style="ellipse;whiteSpace=wrap;html=1;fillColor=#ffe6cc;strokeColor=#d79b00;" vertex="1" parent="WIyWlLk6GJQsqaUBKTNV-1">
          <mxGeometry x="-270" y="720" width="83" height="80" as="geometry" />
        </mxCell>
        <mxCell id="rEVr8UFWXFzNMmC5mLxL-74" value="&lt;div&gt;Select&lt;/div&gt;" style="ellipse;whiteSpace=wrap;html=1;fillColor=#ffe6cc;strokeColor=#d79b00;" vertex="1" parent="WIyWlLk6GJQsqaUBKTNV-1">
          <mxGeometry x="-220" y="800" width="83" height="80" as="geometry" />
        </mxCell>
      </root>
    </mxGraphModel>
  </diagram>
</mxfile>
